<mxfile host="app.diagrams.net" agent="Mozilla/5.0 (Windows NT 10.0; Win64; x64) AppleWebKit/537.36 (KHTML, like Gecko) Chrome/141.0.0.0 Safari/537.36" version="28.2.8">
  <diagram name="Page-1" id="rKUDmMy-aCCdSldLpG43">
    <mxGraphModel dx="1096" dy="649" grid="1" gridSize="10" guides="1" tooltips="1" connect="1" arrows="1" fold="1" page="1" pageScale="1" pageWidth="850" pageHeight="1100" math="0" shadow="0">
      <root>
        <mxCell id="0" />
        <mxCell id="1" parent="0" />
        <mxCell id="2FPEzur9Eh4le2zclbZ9-1" value="High Level Architecture" style="text;html=1;whiteSpace=wrap;strokeColor=none;fillColor=none;align=center;verticalAlign=middle;rounded=0;fontSize=20;fontStyle=1" parent="1" vertex="1">
          <mxGeometry width="240" height="40" as="geometry" />
        </mxCell>
        <mxCell id="2FPEzur9Eh4le2zclbZ9-2" value="" style="rounded=0;whiteSpace=wrap;html=1;fillColor=none;dashed=1;strokeColor=light-dark(#FFEFDC,#787878);" parent="1" vertex="1">
          <mxGeometry x="20" y="120" width="140" height="760" as="geometry" />
        </mxCell>
        <mxCell id="2FPEzur9Eh4le2zclbZ9-3" value="Sources" style="rounded=0;whiteSpace=wrap;html=1;fontSize=24;fontStyle=0;strokeColor=none;fillColor=default;" parent="1" vertex="1">
          <mxGeometry x="40" y="100" width="100" height="30" as="geometry" />
        </mxCell>
        <mxCell id="2FPEzur9Eh4le2zclbZ9-4" value="" style="rounded=0;whiteSpace=wrap;html=1;fillColor=none;dashed=1;strokeColor=light-dark(#FFEFDC,#787878);" parent="1" vertex="1">
          <mxGeometry x="240" y="120" width="720" height="760" as="geometry" />
        </mxCell>
        <mxCell id="2FPEzur9Eh4le2zclbZ9-5" value="Data Warehouse" style="rounded=0;whiteSpace=wrap;html=1;fontSize=24;fontStyle=0;strokeColor=none;fillColor=default;" parent="1" vertex="1">
          <mxGeometry x="485" y="100" width="190" height="30" as="geometry" />
        </mxCell>
        <mxCell id="2FPEzur9Eh4le2zclbZ9-6" value="" style="rounded=0;whiteSpace=wrap;html=1;fillColor=none;dashed=1;strokeColor=light-dark(#FFEFDC,#787878);" parent="1" vertex="1">
          <mxGeometry x="1041" y="120" width="140" height="760" as="geometry" />
        </mxCell>
        <mxCell id="2FPEzur9Eh4le2zclbZ9-7" value="Consume" style="rounded=0;whiteSpace=wrap;html=1;fontSize=24;fontStyle=0;strokeColor=none;fillColor=default;" parent="1" vertex="1">
          <mxGeometry x="1061" y="100" width="100" height="30" as="geometry" />
        </mxCell>
        <mxCell id="2FPEzur9Eh4le2zclbZ9-8" value="Bronze Layer" style="rounded=0;whiteSpace=wrap;html=1;fontSize=20;fillColor=light-dark(#FFFFFF,#FCA956);fontColor=light-dark(#000000,#000000);fontStyle=1" parent="1" vertex="1">
          <mxGeometry x="280" y="160" width="160" height="40" as="geometry" />
        </mxCell>
        <mxCell id="2FPEzur9Eh4le2zclbZ9-9" value="" style="rounded=0;whiteSpace=wrap;html=1;fontSize=18;fillColor=none;fontColor=light-dark(#000000,#000000);fontStyle=1;strokeColor=light-dark(#FFFFFF,#FCA956);" parent="1" vertex="1">
          <mxGeometry x="280" y="210" width="160" height="630" as="geometry" />
        </mxCell>
        <mxCell id="2FPEzur9Eh4le2zclbZ9-10" value="Silver Layer" style="rounded=0;whiteSpace=wrap;html=1;fontSize=20;fillColor=light-dark(#FFFFFF,#C4C4C4);fontColor=light-dark(#000000,#000000);fontStyle=1" parent="1" vertex="1">
          <mxGeometry x="516" y="160" width="160" height="40" as="geometry" />
        </mxCell>
        <mxCell id="2FPEzur9Eh4le2zclbZ9-11" value="" style="rounded=0;whiteSpace=wrap;html=1;fontSize=18;fillColor=none;fontColor=light-dark(#000000,#000000);fontStyle=1;strokeColor=light-dark(#FFFFFF,#C4C4C4);" parent="1" vertex="1">
          <mxGeometry x="516" y="210" width="160" height="630" as="geometry" />
        </mxCell>
        <mxCell id="2FPEzur9Eh4le2zclbZ9-12" value="Gold Layer" style="rounded=0;whiteSpace=wrap;html=1;fontSize=20;fillColor=light-dark(#FFFFFF,#EFBF04);fontColor=light-dark(#000000,#000000);fontStyle=1" parent="1" vertex="1">
          <mxGeometry x="755" y="160" width="160" height="40" as="geometry" />
        </mxCell>
        <mxCell id="2FPEzur9Eh4le2zclbZ9-13" value="" style="rounded=0;whiteSpace=wrap;html=1;fontSize=18;fillColor=none;fontColor=light-dark(#000000,#000000);fontStyle=1;strokeColor=light-dark(#FFFFFF,#EFBF04);" parent="1" vertex="1">
          <mxGeometry x="755" y="210" width="160" height="630" as="geometry" />
        </mxCell>
        <mxCell id="2FPEzur9Eh4le2zclbZ9-14" value="CRM" style="image;aspect=fixed;html=1;points=[];align=center;fontSize=12;image=img/lib/azure2/general/Folder_Blank.svg;" parent="1" vertex="1">
          <mxGeometry x="56" y="224" width="69" height="56.00000000000001" as="geometry" />
        </mxCell>
        <mxCell id="2FPEzur9Eh4le2zclbZ9-15" value="" style="image;aspect=fixed;html=1;points=[];align=center;fontSize=12;image=img/lib/azure2/general/File.svg;" parent="1" vertex="1">
          <mxGeometry x="104.17" y="244" width="31.65" height="39" as="geometry" />
        </mxCell>
        <mxCell id="2FPEzur9Eh4le2zclbZ9-16" value="ERP" style="image;aspect=fixed;html=1;points=[];align=center;fontSize=12;image=img/lib/azure2/general/Folder_Blank.svg;" parent="1" vertex="1">
          <mxGeometry x="56" y="344" width="69" height="56.00000000000001" as="geometry" />
        </mxCell>
        <mxCell id="2FPEzur9Eh4le2zclbZ9-17" value="" style="image;aspect=fixed;html=1;points=[];align=center;fontSize=12;image=img/lib/azure2/general/File.svg;" parent="1" vertex="1">
          <mxGeometry x="104.17" y="364" width="31.65" height="39" as="geometry" />
        </mxCell>
        <mxCell id="2FPEzur9Eh4le2zclbZ9-18" value="" style="endArrow=none;html=1;rounded=0;" parent="1" edge="1">
          <mxGeometry width="50" height="50" relative="1" as="geometry">
            <mxPoint x="30" y="440" as="sourcePoint" />
            <mxPoint x="150" y="440" as="targetPoint" />
            <Array as="points">
              <mxPoint x="30" y="440" />
            </Array>
          </mxGeometry>
        </mxCell>
        <mxCell id="2FPEzur9Eh4le2zclbZ9-19" value="&lt;font style=&quot;font-size: 10px;&quot;&gt;&lt;b&gt;Object Types&lt;/b&gt; : CSV Files&lt;/font&gt;&lt;div&gt;&lt;div&gt;&lt;font style=&quot;font-size: 10px;&quot;&gt;&lt;b&gt;Interface&lt;/b&gt; : Files in Folder&lt;/font&gt;&lt;/div&gt;&lt;/div&gt;" style="text;html=1;whiteSpace=wrap;strokeColor=none;fillColor=none;align=center;verticalAlign=middle;rounded=0;" parent="1" vertex="1">
          <mxGeometry x="30" y="450" width="120" height="60" as="geometry" />
        </mxCell>
        <mxCell id="2FPEzur9Eh4le2zclbZ9-20" value="" style="html=1;verticalLabelPosition=bottom;align=center;labelBackgroundColor=#ffffff;verticalAlign=top;strokeWidth=2;strokeColor=light-dark(#FFFFFF,#FCA956);shadow=0;dashed=0;shape=mxgraph.ios7.icons.data;fillColor=none;" parent="1" vertex="1">
          <mxGeometry x="317.5" y="267" width="85" height="110" as="geometry" />
        </mxCell>
        <mxCell id="2FPEzur9Eh4le2zclbZ9-21" value="" style="html=1;verticalLabelPosition=bottom;align=center;labelBackgroundColor=#ffffff;verticalAlign=top;strokeWidth=2;strokeColor=light-dark(#FFFFFF,#C4C4C4);shadow=0;dashed=0;shape=mxgraph.ios7.icons.data;fillColor=none;" parent="1" vertex="1">
          <mxGeometry x="557.5" y="267" width="85" height="110" as="geometry" />
        </mxCell>
        <mxCell id="2FPEzur9Eh4le2zclbZ9-22" value="" style="html=1;verticalLabelPosition=bottom;align=center;labelBackgroundColor=#ffffff;verticalAlign=top;strokeWidth=2;strokeColor=light-dark(#FFFFFF,#EFBF04);shadow=0;dashed=0;shape=mxgraph.ios7.icons.data;fillColor=none;" parent="1" vertex="1">
          <mxGeometry x="798" y="268" width="85" height="110" as="geometry" />
        </mxCell>
        <mxCell id="2FPEzur9Eh4le2zclbZ9-23" value="" style="html=1;shadow=0;dashed=0;align=center;verticalAlign=middle;shape=mxgraph.arrows2.arrow;dy=0.6;dx=40;notch=0;fillColor=light-dark(#FFFFFF,#67AB9F);" parent="1" vertex="1">
          <mxGeometry x="160" y="320" width="100" height="40" as="geometry" />
        </mxCell>
        <mxCell id="2FPEzur9Eh4le2zclbZ9-26" value="" style="html=1;shadow=0;dashed=0;align=center;verticalAlign=middle;shape=mxgraph.arrows2.arrow;dy=0.6;dx=40;notch=0;fillColor=light-dark(#FFFFFF,#67AB9F);" parent="1" vertex="1">
          <mxGeometry x="950" y="415" width="100" height="40" as="geometry" />
        </mxCell>
        <mxCell id="2FPEzur9Eh4le2zclbZ9-28" value="" style="html=1;shadow=0;dashed=0;align=center;verticalAlign=middle;shape=mxgraph.arrows2.arrow;dy=0.6;dx=40;notch=0;fillColor=light-dark(#FFFFFF,#67AB9F);" parent="1" vertex="1">
          <mxGeometry x="430" y="413" width="100" height="40" as="geometry" />
        </mxCell>
        <mxCell id="2FPEzur9Eh4le2zclbZ9-29" value="" style="html=1;shadow=0;dashed=0;align=center;verticalAlign=middle;shape=mxgraph.arrows2.arrow;dy=0.6;dx=40;notch=0;fillColor=light-dark(#FFFFFF,#67AB9F);" parent="1" vertex="1">
          <mxGeometry x="670" y="415" width="100" height="40" as="geometry" />
        </mxCell>
        <mxCell id="2FPEzur9Eh4le2zclbZ9-30" value="Row Data" style="text;html=1;whiteSpace=wrap;strokeColor=none;fillColor=none;align=center;verticalAlign=middle;rounded=0;fontSize=10;" parent="1" vertex="1">
          <mxGeometry x="310" y="378" width="100" height="38.5" as="geometry" />
        </mxCell>
        <mxCell id="2FPEzur9Eh4le2zclbZ9-31" value="Cleaned, Standarized Data" style="text;html=1;whiteSpace=wrap;strokeColor=none;fillColor=none;align=center;verticalAlign=middle;rounded=0;fontSize=10;" parent="1" vertex="1">
          <mxGeometry x="550" y="381" width="100" height="38.5" as="geometry" />
        </mxCell>
        <mxCell id="2FPEzur9Eh4le2zclbZ9-32" value="Business-Ready Data" style="text;html=1;whiteSpace=wrap;strokeColor=none;fillColor=none;align=center;verticalAlign=middle;rounded=0;fontSize=10;" parent="1" vertex="1">
          <mxGeometry x="790.5" y="381" width="100" height="38.5" as="geometry" />
        </mxCell>
        <mxCell id="2FPEzur9Eh4le2zclbZ9-33" value="" style="endArrow=none;html=1;rounded=0;strokeColor=light-dark(#FFFFFF,#FCA956);" parent="1" edge="1">
          <mxGeometry width="50" height="50" relative="1" as="geometry">
            <mxPoint x="305" y="429" as="sourcePoint" />
            <mxPoint x="425" y="429" as="targetPoint" />
            <Array as="points">
              <mxPoint x="305" y="429" />
            </Array>
          </mxGeometry>
        </mxCell>
        <mxCell id="2FPEzur9Eh4le2zclbZ9-34" value="" style="endArrow=none;html=1;rounded=0;" parent="1" edge="1">
          <mxGeometry width="50" height="50" relative="1" as="geometry">
            <mxPoint x="540" y="430" as="sourcePoint" />
            <mxPoint x="660" y="430" as="targetPoint" />
            <Array as="points">
              <mxPoint x="540" y="430" />
            </Array>
          </mxGeometry>
        </mxCell>
        <mxCell id="2FPEzur9Eh4le2zclbZ9-35" value="" style="endArrow=none;html=1;rounded=0;fillColor=#fff2cc;gradientColor=#ffd966;strokeColor=light-dark(#FFFFFF,#EFBF04);" parent="1" edge="1">
          <mxGeometry width="50" height="50" relative="1" as="geometry">
            <mxPoint x="780" y="429.5" as="sourcePoint" />
            <mxPoint x="900" y="429.5" as="targetPoint" />
            <Array as="points">
              <mxPoint x="780" y="429.5" />
            </Array>
          </mxGeometry>
        </mxCell>
        <mxCell id="2FPEzur9Eh4le2zclbZ9-36" value="&#xa;&lt;div style=&quot;forced-color-adjust: none; box-shadow: none !important; text-align: left;&quot;&gt;&lt;span style=&quot;forced-color-adjust: none; box-shadow: none !important; background-color: transparent; color: light-dark(rgb(0, 0, 0), rgb(255, 255, 255));&quot;&gt;&lt;b style=&quot;forced-color-adjust: none; box-shadow: none !important;&quot;&gt;Object Type&lt;/b&gt;&lt;span&gt;&amp;nbsp;&lt;/span&gt;: Tables&lt;/span&gt;&lt;/div&gt;&lt;div style=&quot;forced-color-adjust: none; box-shadow: none !important; text-align: left;&quot;&gt;&lt;b style=&quot;forced-color-adjust: none; box-shadow: none !important;&quot;&gt;Load&lt;/b&gt;:&lt;/div&gt;&lt;div style=&quot;forced-color-adjust: none; box-shadow: none !important; text-align: left;&quot;&gt;&lt;ul style=&quot;forced-color-adjust: none; box-shadow: none !important;&quot;&gt;&lt;li style=&quot;forced-color-adjust: none; box-shadow: none !important;&quot;&gt;Batch Processing&lt;/li&gt;&lt;li style=&quot;forced-color-adjust: none; box-shadow: none !important;&quot;&gt;Full Load&lt;/li&gt;&lt;li style=&quot;forced-color-adjust: none; box-shadow: none !important;&quot;&gt;Truncate &amp;amp; Insert&lt;/li&gt;&lt;/ul&gt;&lt;div style=&quot;forced-color-adjust: none; box-shadow: none !important;&quot;&gt;No&lt;span&gt;&amp;nbsp;&lt;/span&gt;&lt;b style=&quot;forced-color-adjust: none; box-shadow: none !important;&quot;&gt;Transformations&lt;/b&gt;&lt;/div&gt;&lt;div style=&quot;forced-color-adjust: none; box-shadow: none !important;&quot;&gt;&lt;br style=&quot;forced-color-adjust: none; box-shadow: none !important;&quot;&gt;&lt;/div&gt;&lt;div style=&quot;forced-color-adjust: none; box-shadow: none !important;&quot;&gt;&lt;b style=&quot;forced-color-adjust: none; box-shadow: none !important;&quot;&gt;Data Mode&lt;/b&gt;l: None (as-is)&lt;/div&gt;&lt;/div&gt;&lt;div style=&quot;forced-color-adjust: none; box-shadow: none !important;&quot;&gt;&lt;br style=&quot;forced-color-adjust: none; box-shadow: none !important; color: rgb(255, 255, 255); font-family: Helvetica; font-size: 12px; font-style: normal; font-variant-ligatures: normal; font-variant-caps: normal; font-weight: 400; letter-spacing: normal; orphans: 2; text-align: center; text-indent: 0px; text-transform: none; widows: 2; word-spacing: 0px; -webkit-text-stroke-width: 0px; white-space: normal; background-color: rgb(27, 29, 30); text-decoration-thickness: initial; text-decoration-style: initial; text-decoration-color: initial;&quot;&gt;&#xa;&#xa;&lt;/div&gt;" style="text;html=1;whiteSpace=wrap;strokeColor=none;fillColor=none;align=center;verticalAlign=middle;rounded=0;" parent="1" vertex="1">
          <mxGeometry x="290" y="459" width="140" height="245" as="geometry" />
        </mxCell>
        <mxCell id="2FPEzur9Eh4le2zclbZ9-37" value="" style="shadow=0;dashed=0;html=1;strokeColor=none;fillColor=#4495D1;labelPosition=center;verticalLabelPosition=bottom;verticalAlign=top;align=center;outlineConnect=0;shape=mxgraph.veeam.script;fontColor=light-dark(#000000,#FFFFFF);" parent="1" vertex="1">
          <mxGeometry x="343.8" y="234" width="32.4" height="20" as="geometry" />
        </mxCell>
        <mxCell id="2FPEzur9Eh4le2zclbZ9-38" value="&lt;font style=&quot;font-size: 7px;&quot;&gt;Stored Procedure&lt;/font&gt;" style="text;html=1;whiteSpace=wrap;strokeColor=none;fillColor=none;align=center;verticalAlign=middle;rounded=0;" parent="1" vertex="1">
          <mxGeometry x="330" y="214" width="60" height="16" as="geometry" />
        </mxCell>
        <mxCell id="2FPEzur9Eh4le2zclbZ9-40" value="" style="shadow=0;dashed=0;html=1;strokeColor=none;fillColor=#4495D1;labelPosition=center;verticalLabelPosition=bottom;verticalAlign=top;align=center;outlineConnect=0;shape=mxgraph.veeam.script;fontColor=light-dark(#000000,#FFFFFF);" parent="1" vertex="1">
          <mxGeometry x="583.8" y="234" width="32.4" height="20" as="geometry" />
        </mxCell>
        <mxCell id="2FPEzur9Eh4le2zclbZ9-41" value="&lt;font style=&quot;font-size: 7px;&quot;&gt;Stored Procedure&lt;/font&gt;" style="text;html=1;whiteSpace=wrap;strokeColor=none;fillColor=none;align=center;verticalAlign=middle;rounded=0;" parent="1" vertex="1">
          <mxGeometry x="570" y="214" width="60" height="16" as="geometry" />
        </mxCell>
        <mxCell id="2FPEzur9Eh4le2zclbZ9-42" value="&lt;div style=&quot;text-align: left;&quot;&gt;&lt;span style=&quot;background-color: transparent; color: light-dark(rgb(0, 0, 0), rgb(255, 255, 255));&quot;&gt;&lt;b&gt;Object Type&lt;/b&gt; : Tables&lt;/span&gt;&lt;/div&gt;&lt;div style=&quot;text-align: left;&quot;&gt;&lt;b&gt;Load&lt;/b&gt;:&lt;/div&gt;&lt;div style=&quot;text-align: left;&quot;&gt;&lt;ul&gt;&lt;li&gt;Batch Processing&lt;/li&gt;&lt;li&gt;Full Load&lt;/li&gt;&lt;li&gt;Truncate &amp;amp; Insert&lt;/li&gt;&lt;/ul&gt;&lt;div&gt;&lt;b&gt;Transformations:&lt;/b&gt;&lt;/div&gt;&lt;div&gt;&lt;ul&gt;&lt;li&gt;&lt;font style=&quot;font-size: 10px;&quot;&gt;Data Cleansing&lt;/font&gt;&lt;/li&gt;&lt;li&gt;&lt;font style=&quot;font-size: 10px;&quot;&gt;Data Standardization&lt;/font&gt;&lt;/li&gt;&lt;li&gt;&lt;font style=&quot;font-size: 10px;&quot;&gt;Data Normalization&lt;/font&gt;&lt;/li&gt;&lt;li&gt;&lt;font style=&quot;font-size: 10px;&quot;&gt;Data Columns&lt;/font&gt;&lt;/li&gt;&lt;li&gt;&lt;font style=&quot;font-size: 10px;&quot;&gt;Data Enrichment&lt;/font&gt;&lt;/li&gt;&lt;/ul&gt;&lt;/div&gt;&lt;div&gt;&lt;br&gt;&lt;/div&gt;&lt;div&gt;&lt;div&gt;&lt;b&gt;Data Mode&lt;/b&gt;l: None (as-is)&lt;/div&gt;&lt;/div&gt;&lt;div&gt;&lt;br&gt;&lt;/div&gt;&lt;/div&gt;&lt;div&gt;&lt;br&gt;&lt;/div&gt;" style="text;html=1;whiteSpace=wrap;strokeColor=none;fillColor=none;align=center;verticalAlign=middle;rounded=0;" parent="1" vertex="1">
          <mxGeometry x="530" y="455" width="140" height="347" as="geometry" />
        </mxCell>
        <mxCell id="2FPEzur9Eh4le2zclbZ9-43" value="&lt;div style=&quot;text-align: left;&quot;&gt;&lt;span style=&quot;background-color: transparent; color: light-dark(rgb(0, 0, 0), rgb(255, 255, 255));&quot;&gt;&lt;b&gt;Object Type&lt;/b&gt; : Views&lt;/span&gt;&lt;/div&gt;&lt;div style=&quot;text-align: left;&quot;&gt;&lt;b&gt;&lt;br&gt;&lt;/b&gt;&lt;/div&gt;&lt;div style=&quot;text-align: left;&quot;&gt;&lt;b&gt;No Load&lt;/b&gt;&lt;/div&gt;&lt;div style=&quot;text-align: left;&quot;&gt;&lt;b&gt;&lt;br&gt;&lt;/b&gt;&lt;/div&gt;&lt;div style=&quot;text-align: left;&quot;&gt;&lt;div&gt;&lt;b&gt;Transformations:&lt;/b&gt;&lt;/div&gt;&lt;div&gt;&lt;ul&gt;&lt;li&gt;&lt;font style=&quot;font-size: 10px;&quot;&gt;Data Integrations&lt;/font&gt;&lt;/li&gt;&lt;li&gt;&lt;span style=&quot;font-size: 10px;&quot;&gt;Aggregations&lt;/span&gt;&lt;/li&gt;&lt;li&gt;&lt;span style=&quot;font-size: 10px;&quot;&gt;Business Logics&lt;/span&gt;&lt;/li&gt;&lt;/ul&gt;&lt;/div&gt;&lt;div&gt;&lt;br&gt;&lt;/div&gt;&lt;div&gt;&lt;div&gt;&lt;b&gt;Data Mode&lt;/b&gt;l:&lt;/div&gt;&lt;/div&gt;&lt;div&gt;&lt;ul&gt;&lt;li&gt;Star Schema&lt;/li&gt;&lt;li&gt;Flat Table&lt;/li&gt;&lt;li&gt;Aggregated Table&lt;/li&gt;&lt;/ul&gt;&lt;/div&gt;&lt;div&gt;&lt;br&gt;&lt;/div&gt;&lt;/div&gt;&lt;div&gt;&lt;br&gt;&lt;/div&gt;" style="text;html=1;whiteSpace=wrap;strokeColor=none;fillColor=none;align=center;verticalAlign=middle;rounded=0;" parent="1" vertex="1">
          <mxGeometry x="765" y="453" width="140" height="347" as="geometry" />
        </mxCell>
        <mxCell id="2FPEzur9Eh4le2zclbZ9-44" value="" style="sketch=0;pointerEvents=1;shadow=0;dashed=0;html=1;strokeColor=none;fillColor=#005F4B;labelPosition=center;verticalLabelPosition=bottom;verticalAlign=top;align=center;outlineConnect=0;shape=mxgraph.veeam2.sql_server;" parent="1" vertex="1">
          <mxGeometry x="240" y="68" width="40" height="42" as="geometry" />
        </mxCell>
        <mxCell id="2FPEzur9Eh4le2zclbZ9-45" value="SQL Server" style="text;html=1;whiteSpace=wrap;strokeColor=none;fillColor=none;align=center;verticalAlign=middle;rounded=0;fontSize=14;fontStyle=1" parent="1" vertex="1">
          <mxGeometry x="280" y="80" width="84" height="30" as="geometry" />
        </mxCell>
        <mxCell id="2FPEzur9Eh4le2zclbZ9-46" value="" style="image;aspect=fixed;html=1;points=[];align=center;fontSize=12;image=img/lib/azure2/analytics/Power_BI_Embedded.svg;" parent="1" vertex="1">
          <mxGeometry x="1046" y="239" width="65" height="86.69" as="geometry" />
        </mxCell>
        <mxCell id="2FPEzur9Eh4le2zclbZ9-49" value="" style="shape=image;verticalLabelPosition=bottom;verticalAlign=top;imageAspect=0;image=data:image/png,iVBORw0KGgoAAAANSUhEUgAAAPAAAADwCAYAAAA+VemSAAAACXBIWXMAAAsTAAALEwEAmpwYAAAF9klEQVR4nO3asXUbRxSF4WnAfShxD8xcBBE4Z8JIUuIKHNCx7cCuRIpci7uAD3KT4hFm9819833n3GiDBXbwMyAwBgAAAADA0T69/PHw+bc/r6/tdr36NQKvEDAEEzAEEzAEEzAEEzAEEzAEEzAEEzAEEzAEEzAEEzAEEzAEEzAEEzAEEzAEEzAEEzAUuIU1Yx9ffn9+K+Db9Vn3qn5msIy3olt11c8MllEdo4DhDtUxChjuUB2jgOEO1TEKGO5QHaOAWdr1r3F9z6peX3WMSQH//Muv1/ds0MfqAfse+P0EvKHVA55lh19iCXhDAhYwwQQsYIIJWMAEE7CACSZgARNMwAImmIAFTDABC5hgAhYwwQQsYIIJWMAEE7CACSZgARNMwAImmIAFTDABC5hgAhYwwXYJeAcC3pCA+xDwhgTch4A3JOA+BLwhAfch4A0JuA8Bb0jAfQh4QwLuQ8AbEnAfAt6QgPsQcEBIu200Dmm3jc6qQ1l1I1B1KKtudFYdyqobgapDWXWjs+pQVt0IVB3KqhudVYey6kag6lBW3eisOpRVNwJVh7LqRmfVoay6Eag6lFU3OqsOZdWNQNWhrLrRWXUoq24Eqg5l1Y3OqkNZdSNQdSirbjBf55B2I6QNCbgPAW9IwH0IeEMC7kPAGxJwHwLeUOeA//344/V7NwIJeEMCFjDBBCxggglYwAQTsIAJJmABE0zAAiaYgAVMMAELmGACFjDBBCxggglYwAQTsIAJJmABE0zAAiaYgAVMMAELmGACFjDBBCxggglYwNzh08sfD59/+/P62m7Xj7y/gAU80+PTl4fL09fra7tdH50I+DgCFvDhBHwcAQv4cAI+joAFfDgBH0fAAm4fcGe7BbyCR//EEvAsAj6fgAU8jYDPJ2ABTyPg8wlYwNMI+HwCFvA0Aj6fgAU8jYDPJ2ABTyPg8wlYwNMI+HwCFvA0Aj6fgMMDvicay/9j8ihgAZuAYwjYBFzgFtaMfXz5/fmtgG/XZ93rjOdS/WHvuDPO7fHpy8OkPX8j4OdZ97rrDb8V3aobJ6j+sHfcGed2eSO6VXfXG66OUcD77IxzuywQpIAF3HJnnNtlgSAFLOCWO+PcLgsEKWABt9wZ53ZZIEgBC7jlzji3ywJBCljALXfGuV12C9j3wP+v+sPecWec2+Nu3wPP4pdYtkLA2/0SaxYBm4CDCdgEHKxbwCvZJZqVPApYwLMI+HwCFvA0Aj6fgAU8jYDPJ2ABTyPg8wlYwNMI+HwCFvA0Aj6fgAU8jYDPJ2ABTyPg8wlYwNMI+HwCPjngfz58uL5nI9BuAf/w09/X92wcSMACnkbAAj6cgI8jYAEfTsDHEbCADyfg4whYwO0JWMAEE7CACSZgARNMwAImmIAFTDABC5hgAhYwwQQsYIIJWMAEE7CACSZgARNMwAImmIAFTDABC5hgAhYwwQQsYIIJWMAEE7CACSZgARNMwAImWOeAdyPgDQm4DwFvSMB9CHhDAu5DwBsScB8CDghpt43GIe220Vl1KKtuBKoOZdWNzqpDWXUjUHUoq250Vh3KqhuBqkNZdaOz6lBW3QhUHcqqG51Vh7LqRqDqUFbd6Kw6lFU3AlWHsupGZ9WhrLoRqDqUVTc6qw5l1Y1A1aGsutFZdSirbgSqDmXVDebrHNJuhLQhAfch4A0JuA8Bb0jAfQh4QwLuQ8AbEnAfAt6QgPsQ8IYE3IeANyTgPgS8IQH3IeAN7RLw49OXh8vT1+tru10f4QS8IQELmGACFjDBBCxggglYwAQTsIAJJmABE0zAAiaYgAVMMAELmGACFjDBBCxggglYwAQTsIAJJmABE0zAAiaYgAVMMAELmGCrB3wLa9KevxHw86x7VT0rAW9o9YDfim7VVT0rAbOc6hiTAoblVMcoYLhDdYwChjtUxyhguEN1jAKGO1THKGC4g++BgS1+iQVtCRiCCRiCCRiCCRiCCRiCCRiCCRiCCRiCCRiCCRiCCRiCCRiCCRiCCRiCCRiCCRiCCRgAAAAAAAAAAADGd/oPTrq3BXevR7gAAAAASUVORK5CYII=;" parent="1" vertex="1">
          <mxGeometry x="1112" y="239" width="65" height="82" as="geometry" />
        </mxCell>
        <mxCell id="2FPEzur9Eh4le2zclbZ9-51" value="BI &amp;amp; Reporting" style="text;html=1;whiteSpace=wrap;strokeColor=none;fillColor=none;align=center;verticalAlign=middle;rounded=0;fontStyle=1;fontSize=13;" parent="1" vertex="1">
          <mxGeometry x="1050" y="341" width="120" height="30" as="geometry" />
        </mxCell>
        <mxCell id="NVEWjL5u0437nd3FOFg7-1" value="" style="shape=image;verticalLabelPosition=bottom;verticalAlign=top;imageAspect=0;aspect=fixed;image=data:image/png,iVBORw0KGgoAAAANSUhEUgAAAEAAAABACAYAAACqaXHeAAAACXBIWXMAAAsTAAALEwEAmpwYAAAKfklEQVR4nO0baVAUZ3a2apOtPf7tpray5Vpr96hIxSuWMauuqY2R7OImxOBdMQoBNPFCUEABQSVegDoy3TMjosgx3dMqigcCKsRzTTQBr0EUJAxKROORWLVrVs3bel877czQPdNzsa7kVb3i4/ve+97xdX/9vve+0Wh+gq6BPqbS39Esd1ANIq3meQNKb5lCszyoQYrlJ2ueN6AZrlCtA2iW36p5rgDgZxTLX1fvAO4b5NE8L9CLMQ/wYvXF1yBP6K95VkGrE14KFYQX1dJTLLfIawew3CK186MuqJOmK4BmuD9SDN9EM/xlLctPUMXD8oe8dQB+DdTM3Yvl36JY/gLN8l/32Sj08ttAVcY7r1SNljUPVuIZkF30a4rlHvjwBDxAXqV5tQYhlGL5Ay58wXMCLWO8Az6mWF6gTEJPVz6KMY/1fvUlJ/zddb6epuKXaZY30Qz3SIEv8E6gTEJPiuWbVSh8n2L5tB65wi+HmEwv4CtCM1y9Hw6owzlwLpwT50YZKuKIZrnFCKrxtLMCNu8+ex7nu45zesnjvxNo94/9/wP6/jpodcJL3q68O9SyPITmFMGrmfkwLJmFEQl5MHK+jiC2X0sxkLHQnGKgmcA5AW3w6RM5xGR6gWb5Rn8VQIPQ4NGx2RA2Y40T7tVNJujaPzo2B4alsNAvt8h/BzB8k1ZX8QufngKa4d/zVXC/3GIYEb8RwqLWQHJSIpzfEg5vR612MrRaP4GgYx/SIC3yIO/I+Dwyl89O0HMRPhlvB/GI6oVAhofXFhuJ8najJs9aBg/LX4cUNMqDAxYnJ8Cj8mEw9ePMp/1Ra2DoEiMGR96ufq3GX/iTgR/o5psLfY0CjNxWDpHbq2CC+QCMmruh0yONeNQwDo4bxjn1JSxcRNCx74TxPThieF92jlFzdNBHZ1brgMc0Kwzx2wEINMMVOE4ezlfA0Sut0NjeAbfu3IPbd78jWHu6QVZxxJnzl3QyVg6RBmmVxv86KxfW1p6GhKoTnja/zZpAQa988+8plv/OPnlY6X7JaEc8VXfZo4GI0+KXQ/qqFNjAJBLE9gfxy1Xxfpyxlci6eeceTNt1WMF47j5GjJpAAsXyadIGZxJgnFAF7wqVYLt5W3JAnfWqouLh0atBb0iA5tMfALS9L4tNX0yDPDaB0Lpzwib+MJF39cYtGF64W2Yf4lI1gYYeYijqFI3ttzZLhuPfhqZrsgrPS0uH9rNTFQ13xWv1U2FuWrqiA96OWgPVx+qJzH3WJtdH34a6BtwBb2TU/pxiuGt2QTPKa4kC39y8DbMzCkm7xXajk7JZOUnwQ0ukauPt+ODqeFiRnazohEnz9NDeIT59M8prHL9C7RjDBNwBtMEy0TGqO9VyjQjXF1fD2JhcOPK5FcoPnXFSckFGGvzn6/GyBlafnispffD0XFmah62RsDAzVdEJJk58FU5ebSM6OeinKk+hCl427fkVZeDD8WRmFzCl7KC44tc6YGxMjqxyETNXwp2GSU4GbTmSAofOzCHtpfs/lRTGNvbhGNI48nxrnQwRcatkZbwTlwvNtnaiy4Qd1Y57QD3q7C6f4BZ6s6UUzXJxNMPvpRn+366bTEldAxFatOuo4uqUFDmvKlOTKvFHlLLQ31QC/dYVQ8i6YtLGPvs40jrybts2T1FO4c4jRJfir6xyX4OHNMMdp1gumcQESonWkLyy35KzO8ubPB07+xgt0s4flbxJVqm/Ra+Ge43Oq7+0IkuaY9CyzfBm7NMn5824HBi0vEAaz6jIcuK9d2kimVM2vkjfIn4ROr6FPgaLpyi1AxM3uLh988x/kByAIaPa8DLCUkkEWpvaFFdl4bK0Tu/zneYp0H9TCbyakU9o/rxQD6+sKoRXVm0lbezDMaRBWlf+hIw0RXmoC+r0juWAb2Ey5YUDUg7+kwir+KxOUaHNBfGS4j+2RYL1YjQYa5dAiN4MY6LXwuvJLAzMLQTh8HyC2Ma+MdHZEKIvJbTIg7z2eUz58Yry9td8RXRKqj4RfAcYvzj3ZPevUlSozPKJpLj1wkcSb/+VW8g4nu6aLkyXaC6fm0H6cGzAyq0SPfLaaXZYPlGUl8/XiDqdOht8B2w/d5kIW7axTFGhfWWzZB0wMEt0QN8NJfDINkGiwTb24djAFQWyDsA5leShLqiTcLYx+A6oaBCjv/T12xUVMpc8/QLcvToZ1lZnwj9KjGTHx/FByzfDJON6iWaicQPpw7GQ9cWEFnmQ105jLpmjKG9JrkB02uMSFQbFAfufhL+LcyyKCn2ak9RpE3tki4RBm4pheEIejI7JJo96v/VFBLGNfcMT9YQGaV35MaJUkrdUt4PotLcrHLDd/grodioqNGl2FjxqdTZCOJFI+HvnmUkeEOneiskhiG3s650nJjyEk4nOzmuNhIlzshTlLdfvIjqZ6y8F3wGGz8VNEMNQJYUQj1fFOBkRW7bOaZ5XVhfC0FQjDE01kbbjGNI68h6rjHEriy092HWbYPKTz+Cemi/dKhWblEliebsR37dMgkiOgXm7s6G5YTpMF3TSnNjGPhxDGqR1XP2ZKRluZVUeqSM6LeqKz2CEPRC6YnOrFGKxSzj82Pa0XXosSZoT23I0iDiHJzmXW8TzQDhX4ZsDQrwJhQ0WEnaiwLi0AreK4bm9piJW9qR3t3kKVOyLJohtOZrD++I6ZZJd8aOUfPFg5mUo7DZj1FvlYWjrjs88rg46YTs/G350WVmCx94Q0aUfaQVuNuH1NH9p+XFRly8v+n4YcgekvG3gwx2LnBN3VhOheBTFI6knJRETM9Pg/InpHh2ANO7ifkfEPETr9ZudjsN4dEed8SivCRRoxVeECMDkw/Fmm6qvgSs2npqm6AAc88SPSRdMvqDxukJxPzrZ3Oa08lq9ebymq1Ji7R23SXpKrQOsJz9UdACOeeLHtBvKjVmSD7Z2cfU/dMwOBysl1kMmKbr74hWiwKGT51W9r4FwACZeUeaZ82JEWn7xStckRSmWS3fdZEYU7iapaW9ehYTKK5Bef5/girpbBO3/45gnfnsGGrH15m1413KApOgxVe/ghLSAGt8LCyMM973cpwWLE1ikQIWwaOFxMzzcBpnWh7KIY574T9WLobgrYrEmaIURmuW2uPu+YpkKy1VYtgq2A7D8Zjcay3JYnsMyHZbrnL/5XEFAjO+tFwaJhUbP0RUWLrGA6c6ABVUtkH72X5DqgtiHY+54R83VQSRXSQqxWJDFwmzQi6O0t+VxliOHHEx9KRqzlIewmhvOuJRTpB8TtZbMqfXy5ojf5XHKYB7nnfEuFyQW5DndE5Bwth7CDrU/NR7b2OdKF7UGRiRsJIkUX/XASx4+GR8qCC8G4ooMOgLv/2Dq28m4DB7CdjVCWNklse16RSYZr8j4Ybi/V2S0Ab4khTdH0KDBeEkqxUAuRv1lvo4gtrFvcOZm0ehn4ZKUprtfk7NDt74oGYirso5FVe9fG67+f35V1u/L0niU9nXlDXz4M3FZ2p/r8qS87st1eYb7IVQv/OaZuS5vh279gwk7dOufzPgCz92PpryG7v6zOYTu/cNJzU8/ndV0+x9Pa55R+C8P5fi2H9iiWAAAAABJRU5ErkJggg==;" parent="1" vertex="1">
          <mxGeometry x="1070" y="693" width="82" height="82" as="geometry" />
        </mxCell>
        <mxCell id="NVEWjL5u0437nd3FOFg7-2" value="" style="shape=image;verticalLabelPosition=bottom;verticalAlign=top;imageAspect=0;aspect=fixed;image=data:image/png,iVBORw0KGgoAAAANSUhEUgAAAEAAAABACAYAAACqaXHeAAAACXBIWXMAAAsTAAALEwEAmpwYAAAHQklEQVR4nO1ba4wURRCeIwg+fyiKQRHY7rk7OAUVfCKKxJ8mGhJNfBB+aHzEP8ZHTFRk/SWgYnLsdC8LJCTAbdVN9OQRLhJMUPGHiYcoZ8IPRdGgcjyMyvt1a6pnerZ3b4+b2dvZvT2opJPbnn7V11XVVV19lnWRyqcZmcwltnBncwHvcoEdXOBuJuEAl3iOCzzBJBziArqZxPVM4gIucM7s5LaRVr2TLbO3cwHLuYB/uMRclKJAkZhhKXeqVW80KY23coGbojJdsgjo5QI7mcRbrKFO45e6l3GB7zMJZ/ruKO5hAlOJND6dENlpTK4Za+VyDdSvKdN2baPj3maL9nlMoMMl7i0hEWeYxKV2a+doayhSo2xjTMLOot07yySstSXeE2mwXK6BC5jJBUAfMAV8b2eAW0OJuHRn+DprLBQ7J2baJus2LY57JZP4BEkBl9DFBOzjEo5T8f/uom/UhtrqfnbabWEStxSN3dPoZO+2hgIlBN5ZaOTgeEK2P6O/024xCSuYgP9CG0CvbYakSo/D0viCB1i+DVuevcOqJTUtcxNc4H5jZ/bzFE4P7IHExUzCyXINoN93MY1FY9Ku0+7nQcCD3HHtmjBvt3aOZgK/M3b+Ly3yJe3BIArNQ2CrsQVM8X2I4NvE1asvrToAXMISwzAdI1Wges/CF9mDEEX318Qcd1YRCAf1UUiiTw6UoQ4fVpV5mwyTwNN6AbaAZxUojmuTJJSzy6WMWl+fAP/UJwCX8HzBEVlNh4mbTo6AzQqU1s7RXOIP5es7/p5IQdN5AfCY3dniuqP8758b4GyqDvNO9mblnXlieXqSdJv7qER0Y/fTJGfdRBqHHKLzAeC3f0+1FTBFxRPeRvSSBxo/AAKlsfvrqI4Wb6pEtALbEyuz19M45DBxiX+T/ick3N+/UYRTLONOoD5MIhpSIGOP6phhgbXeFoAStgg4S24zjakYceAhJuFI+P4eswVACTis1SMWanTwAcMq/0x14zIbL6dTIKLI72BpvE+PywS8XCp+GADAYzS35zbjr7qeAIkNAC7hLYOJZWrx6ezcCIbuG3J1rWRyBPWdkFk7jknYWIK5mcVzFx+LqjjwqFoXhdx59VgYHwACPg4mctqfVAuTsKIfZo+SlDABn3GBb5oGik4M28m+Qvpeqm+/8/e1H2k1nmifZ6hGR2wAMMO709aaC/g6zA7qsJdLfK1UuFsKgP5+G1L4papP4XQD+B9jA4Abfv8E2Xa1D0pgFPPS4c4i/ST3lXSSCXyD/IWwcUFYAMjpMoDVtulgbAAwI6LLOyP5CK1SJSwAtB7DCdNScTI+ACQe1RPp46ssAAYwcqEBkHCk2gD8oScisVOLMsPhiDtcTGVIwD5vXWvGGgAciA0ALmGXnoiiPr9ue6VFPDQAEr4IosO8dHXHBgAT0G5M/pQPQLqGAAhVL3C+Uf9JbABwAW/3mVxmH6kZACL7MNUzASur4wgtd+/NA4B7qG7aB2uuMI1jJYxcGADoBFBXZcnkCAqlg3rHnRUbALOT20aatz3an+cCWytp5EIBIPEjf+45hlQe0qdTbMQkLMvvNLblw2E4VSkGB/qt5hJwkw9AR7FaxgtAyp2qL0QopNUXIqR7VQNA4oJ8Ci5YS68+mWInJuFTYzFbjLuCHfEDAF0qc+yFwV/lpQI3VIP34Fqs4AbIaX+O6u3WteO5gN9iBGBvY9q9Ud8hGMyfpjVZ1SQucJFhC07oLI2ZDqs0AHpssvSmzaH7SKvaZJP/LfBbwwAdMJkvxcBgfxs26LDBfFfzqvVXWTVMjfWYICTS7l0BAwIX0U6Vy7Bn7XFRgS9hMk9xCOUiBGym1ydWLYjTZURRcpSJ9hf1dzOVHRWAoG8u16DuDQ2xZxL/9bPSxrFcKxCkO6NvVAhb6d7ebEf3h5QCD37T9bYhISo9ns7OLfHaJLD2wc6rOeH1wjkLQRi/0r3GFviSjlzjVwcJXUWLOUv39spj9F+DhKJkcgRPw4O+k+MlPgydJ7Ev2PmiYkt8XIXIArr9dXSrFylxU4vrjlIp8RJJEibhF4oc6YkMqc3kVMcYak/GlHbIT3jOp8DG9O0LjjoJS8jgKZ3vh3mKWJtT2RsC5vObUR0QjOTphsBLG0wR0KvGMs559dwuCvO1AEEfWfToST1kiMg4BTbUtz/3thiEAZmvFQiBm+w5Lwu93ALs8vL9cFIVBRDsom/UhtqGieo0CKGZryUIcZHtZB+LxPxwA8Fuda8z7yqjgYC7KT1n1Ss1UUIk6s4PJ0ngAl4d9ClTzyA0VUIC6h0EezA2YLjYBPsiCNZFEIgKAqAK2ASKV6wLGgQJWyNFscMRBPI0rXqkitmEar1AHbKSILDHqmcaNAgCT1j1ToMBQWfBL1gQ6IrOGi5UhmE8V5UX6EMVBCbhHWs40uRUx5iCf7YosfPqqU09OkGhKZdrICfHS6thD12709U9k7iqLv5N16oy/Q8RZq/NgXPwnwAAAABJRU5ErkJggg==;" parent="1" vertex="1">
          <mxGeometry x="1071" y="466" width="83" height="83" as="geometry" />
        </mxCell>
        <mxCell id="NVEWjL5u0437nd3FOFg7-3" value="Ad-Hoc&lt;div&gt;SQL Quries&lt;/div&gt;" style="text;html=1;whiteSpace=wrap;strokeColor=none;fillColor=none;align=center;verticalAlign=middle;rounded=0;fontSize=15;" parent="1" vertex="1">
          <mxGeometry x="1068.5" y="567.5" width="83" height="50" as="geometry" />
        </mxCell>
        <mxCell id="NVEWjL5u0437nd3FOFg7-4" value="Machine Learning" style="text;html=1;whiteSpace=wrap;strokeColor=none;fillColor=none;align=center;verticalAlign=middle;rounded=0;fontSize=15;" parent="1" vertex="1">
          <mxGeometry x="1051.75" y="800" width="121.5" height="50" as="geometry" />
        </mxCell>
      </root>
    </mxGraphModel>
  </diagram>
</mxfile>
